<svg fill="none" height="40" viewBox="0 0 40 40" width="40" xmlns="http://www.w3.org/2000/svg"><path clip-rule="evenodd" d="m13.734 15.212c.696-.406 1.586-.165 1.988.54.158.277.217.585.187.882-.105.341-.332.645-.662.837-.696.406-1.585.165-1.987-.539-.159-.278-.217-.586-.187-.883.105-.34.332-.644.661-.837zm2.214 3.88c.696-.405 1.586-.164 1.988.54.158.278.216.586.187.883-.105.34-.332.644-.662.837-.696.406-1.585.165-1.987-.54-.159-.277-.217-.586-.187-.882.105-.341.332-.645.661-.837zm3.727 6.14c-.696.406-1.585.165-1.987-.539-.159-.278-.217-.586-.187-.883.105-.34.331-.644.661-.837.696-.406 1.586-.165 1.988.54.158.277.217.585.187.882-.105.341-.332.645-.662.837zm5.737-3.716-.003-.008c-2.338-4.097-5.257-7.643-8.59-10.595l-.79-.682c-2.444-2.061-5.099-3.809-7.899-5.231v.015l-.002-.001v.015l-.003-.001v.014h-.005v.014h-.002l-.001.014-.002-.001-.001.015-.002-.001v.015l-.003-.001v.015l-.003-.001v.014h-.002l-.001.014h-.002l-.001.014-.002-.001v.015l-.003-.001v.015l-.002-.001-.001.015-.002-.002-.001.015h-.002v.014h-.003v.014l-.003-.001v.015l-.002-.001-.001.015-.002-.002-.001.015h-.002v.014h-.003c-.183 3.163-.013 6.363.525 9.535l.189 1.032c.86 4.396 2.435 8.727 4.773 12.825.005.009.011.017.018.025l.721 1.264h.001l1.342 2.352 2.199 3.855c.415.728 1.345.98 2.066.56.4-.234.654-.627.73-1.056l.003-.014.003-.014c0-.005.002-.009.003-.014l.003-.013.002-.014.003-.014c0-.005.002-.01.003-.014l.003-.014.002-.014.003-.013.003-.014c0-.005.002-.01.003-.014 0-.005.002-.01.003-.014l.002-.014.003-.014.003-.013c0-.005.002-.01.003-.014l.002-.014.003-.014.003-.014c.063-.337.016-.697-.159-1.018l-.297-.522c-.07-.121-.101-.254-.1-.386.061-.15.17-.281.318-.368.36-.21.825-.084 1.033.28l1.684 2.95c.22.328.66.434 1.003.233.203-.118.332-.32.367-.538l.003-.014.003-.014.003-.014.003-.013.002-.014.003-.014c0-.005.002-.01.003-.014l.003-.014.002-.013.003-.014.003-.014c0-.005.002-.01.003-.014l.003-.014.002-.013.003-.014c0-.005.002-.01.003-.014 0-.005.002-.01.003-.014l.002-.014.003-.013.003-.014c.032-.173.006-.357-.087-.52l-.154-.27h.001l-.322-.565c-.07-.121-.1-.255-.1-.386.062-.15.17-.282.319-.369.36-.21.825-.084 1.033.28l.42.736c.223.313.652.41.99.214.203-.119.33-.32.367-.539l.003-.014.002-.013.003-.014c0-.005.002-.01.003-.014 0-.005.002-.01.003-.014l.002-.014.003-.013.003-.014c0-.005.002-.01.003-.014l.002-.014c.001-.005.003-.009.003-.014l.003-.014.003-.013c0-.005.002-.01.003-.014l.002-.014.003-.014.003-.014.003-.014.003-.013.002-.014c.032-.173.006-.357-.087-.52l-1.522-2.673c-.069-.122-.1-.255-.1-.386.062-.15.17-.282.319-.369.36-.21.825-.084 1.033.28 0 0 .477.81.482.806.456.586 1.287.762 1.943.378.387-.225.637-.6.723-1.011 0-.005.002-.01.003-.014l.002-.014.003-.014.003-.013.002-.014.003-.014.003-.014.003-.014.003-.014.002-.013.003-.014.003-.014.003-.014.003-.014.002-.013.003-.014.003-.014.003-.014c0-.005.002-.01.003-.014l.002-.014c.079-.36.03-.749-.165-1.091l-2.243-3.931-.873-1.53-.623-1.092-.552-.967-.02-.033-.044-.08-.032-.054z" fill="#dbeef5" fill-rule="evenodd"/><path d="m28.322 19.524c0-.003-.002-.006-.003-.008-2.326-4.1-5.23-7.647-8.545-10.6l-.786-.683c-2.433-2.06-5.073-3.81-7.858-5.233v.015l-.003-.001v.015l-.002-.001-.001.014h-.002l-.001.014h-.002v.014l-.003-.001v.015l-.003-.001v.015l-.002-.001-.001.015-.002-.001v.014h-.003v.014h-.005v.014l-.003-.001v.015l-.002-.001-.001.015-.002-.001v.015l-.003-.002v.015h-.002l-.001.014h-.002l-.001.014-.002-.001v.015l-.003-.001v.015l-.003-.001v.015l-.002-.001-.001.014h-.002c-.183 3.165-.014 6.366.522 9.54l.188 1.032c.855 4.398 2.422 8.73 4.748 12.83.005.01.011.017.018.025l.718 1.265s0 0 0 0l1.335 2.353s0 0 0 0l2.188 3.856c.413.73 1.338.982 2.055.56.398-.233.651-.627.727-1.056l.003-.014.003-.013.002-.014.003-.014c0-.005.002-.01.003-.014 0-.005.002-.009.003-.014l.002-.014.003-.013.003-.014c0-.005.002-.01.003-.014 0-.005.002-.01.003-.014l.002-.014.003-.013c0-.005.002-.01.003-.014 0-.005.002-.01.003-.014l.002-.014.003-.014.003-.014.003-.013.002-.014c.063-.338.016-.698-.158-1.02l-.295-.521c-.07-.122-.1-.255-.1-.386.061-.15.169-.282.317-.369.358-.21.82-.084 1.028.28l1.675 2.953c.218.327.655.433.998.232.202-.118.33-.32.365-.538 0-.005.002-.01.003-.014 0-.005.002-.01.003-.014l.002-.014.003-.014.003-.014.002-.013.003-.014.003-.014c0-.005.002-.01.003-.014l.003-.014.002-.013.003-.014.003-.014c0-.005.002-.01.003-.014l.002-.014c.001-.004.003-.009.003-.014l.003-.013c0-.005.002-.01.003-.014 0-.005.002-.01.003-.014l.002-.014c.032-.173.006-.357-.087-.52l-.153-.27h.002l-.32-.565c-.07-.122-.101-.255-.1-.386.061-.15.168-.282.317-.369.358-.21.82-.084 1.027.28l.418.736c.223.313.65.41.985.214.202-.119.33-.32.365-.539l.003-.014.003-.013c0-.005.002-.01.003-.014l.002-.014.003-.014c0-.005.002-.01.003-.014l.002-.014.003-.013.003-.014c0-.005.002-.01.003-.014 0-.005.002-.01.003-.014l.002-.014.003-.014.003-.013c0-.005.002-.01.003-.014 0-.005.002-.01.003-.014l.002-.014.003-.014.003-.014.003-.013c.03-.173.005-.357-.087-.52l-1.514-2.675c-.069-.121-.1-.255-.1-.386.062-.15.17-.282.317-.369.359-.21.821-.084 1.028.28 0 0 .474.81.48.806.453.587 1.28.763 1.933.38.384-.226.633-.601.718-1.013l.003-.014.003-.014.003-.013.002-.014.003-.014.003-.014.003-.014.003-.013.002-.014.003-.014.003-.014c0-.005.002-.01.003-.014l.002-.014.003-.013.003-.014.003-.014.002-.014.003-.014.003-.014.003-.013c.078-.36.03-.75-.165-1.093l-2.231-3.932-.869-1.531-.62-1.093-.548-.967-.02-.033-.044-.08-.032-.053" stroke="#0074a3" stroke-width="1.5"/><path clip-rule="evenodd" d="m16.705 13.217c.692-.407 1.577-.165 1.977.54.157.277.216.585.186.882-.104.341-.33.645-.658.838-.693.406-1.578.165-1.977-.54-.158-.278-.216-.586-.186-.883.104-.34.33-.645.658-.837zm2.202 3.882c.693-.406 1.578-.165 1.977.54.158.277.216.586.187.882-.105.341-.33.645-.659.838-.692.406-1.577.165-1.977-.54-.157-.277-.215-.586-.186-.883.104-.34.33-.645.658-.837zm3.708 6.142c-.692.406-1.577.165-1.977-.54-.158-.277-.216-.586-.186-.882.104-.341.33-.645.658-.838.692-.406 1.577-.165 1.977.54.158.277.216.586.186.883-.104.34-.33.645-.658.837z" fill="#0074a3" fill-rule="evenodd"/></svg>